PathFileType	4	(X/Y/Z)	C:\Users\°ÂÌØÂü\Desktop\20210112\bx_n_5_502-Unnamed.trc
DataRate	CameraRate	NumFrames	NumMarkers	Units	OrigDataRate	OrigDataStartFrame	OrigNumFrames
50.00	50.00	       4	0	mm	50.00	245	       489
Frame#	Time	
		

245	4.880	-722.62244	288.58771	1542.01160	-686.71497	76.26044	574.07806	-609.27502	111.71211	1361.11023	-685.53680	289.77509	874.55389	-581.64136	-1.30217	806.94049	-691.77118	149.08826	577.39502	-694.47260	274.71744	745.39343	-726.05548	256.26489	644.20801	-718.73969	69.12971	216.77924	-660.71826	16.87304	520.21417	-729.59039	252.52585	576.97290	-676.18304	210.99397	535.63318	-588.86633	228.72040	794.58069	-712.57867	155.19670	218.29655	-768.84528	229.50894	205.25047	-882.68286	296.22101	144.87468	-674.58527	52.27811	160.17522	-676.05072	173.80003	159.12354	-592.88416	218.45676	173.86800	-659.85071	298.30252	157.21944	-623.80640	306.63766	158.60646	-556.70355	255.89818	163.83078	-528.03156	304.52658	146.55516	-738.69946	108.79603	1845.33423	-713.11737	-66.72076	1534.72778	-769.69775	261.72357	502.98346	-517.55939	-72.76622	143.36188	-547.85022	-24.42636	162.76501							-793.27991	37.19038	174.25771	-796.39502	180.20750	184.24689	-754.46552	-42.90228	491.03363	-599.89691	27.27045	168.24402	-759.20251	-21.02604	207.78111	-875.99792	-78.69180	141.55168	-798.89752	99.82477	1053.88416	-709.85254	-30.59312	570.54926	-605.62927	-73.33033	158.21976	-648.36951	-68.34031	161.55455	-679.37708	-56.05520	760.72998										-657.67999	-66.89275	875.37762	-702.79932	-32.71009	618.30878	
246	4.900	-721.64374	288.55762	1542.11340	-686.97687	76.12255	573.86188	-608.39807	111.39489	1361.03796	-685.21600	289.25684	874.62183	-581.51599	-1.43323	806.83185	-691.77118	149.08826	577.39502	-694.47260	274.71744	745.39343	-725.68152	256.17026	644.34106				-660.80591	16.71171	520.20679	-729.36096	252.16656	576.87390	-676.07794	210.87030	535.45166	-588.41895	228.76126	794.54742	-712.69019	155.16345	218.04581	-768.75543	229.35423	205.26031	-882.57965	296.26184	144.78772	-674.67529	52.05224	160.02840	-676.05072	173.80003	159.12354	-592.90668	218.43608	173.93234	-659.96790	298.21112	157.14601	-623.62000	306.64719	158.69952	-556.80359	255.83519	163.73381	-528.11536	304.45233	146.53067	-736.15674	108.48398	1845.32532	-711.97076	-67.01294	1535.04773	-769.65295	261.71133	503.29755	-517.55310	-72.56484	143.19489	-547.85358	-24.40445	162.60605	-719.04999	69.01897	216.78352				-793.43201	37.20855	174.28749	-796.51453	180.12296	184.26031	-754.38129	-42.97587	491.03998	-599.91425	27.30575	168.31628	-758.88062	-21.08765	208.07806	-875.87335	-78.57735	141.34627	-798.45551	99.42096	1053.92566	-709.84149	-30.78691	570.53918	-605.70923	-73.32873	158.15388	-648.47272	-68.33286	161.57286	-679.18793	-56.25138	760.58502										-657.44763	-67.19170	875.55139	-702.85022	-33.03439	618.26904	
247	4.920	-720.37219	288.16006	1542.03186	-686.81879	75.89040	574.09265	-607.50671	111.06285	1361.08765	-685.16193	288.69489	874.42328	-581.33417	-1.49874	806.85663	-691.53906	149.06482	577.24994	-694.35132	274.62881	745.38794	-725.81561	255.81369	644.32770				-660.92694	16.42415	520.12909	-729.19489	251.98099	577.04596	-676.13885	210.65787	535.61230	-588.45538	228.79764	794.33801	-712.58966	155.06526	218.13014	-768.72052	229.27519	205.30347	-882.50543	296.19464	144.81471	-674.72418	52.45405	160.30663	-676.05072	173.80003	159.12354	-592.83960	218.57307	173.93030	-659.71881	298.04709	157.38478	-623.68365	306.61984	158.62860	-556.76831	255.76057	163.75940	-528.11969	304.63617	146.75458	-733.68176	108.21603	1845.62744	-710.58765	-67.45241	1534.88782	-769.62415	261.60303	503.22412	-517.55939	-72.76622	143.36188	-547.97589	-24.41085	162.72227	-719.04999	69.01897	216.78352				-793.39441	37.14695	174.60143	-796.46295	180.26711	184.28125	-754.61383	-42.82292	490.89642	-599.80804	27.28011	168.34906	-759.23138	-21.07501	207.77632	-875.99792	-78.69180	141.55168	-798.13849	99.13510	1054.15808	-709.88690	-30.84956	570.47565	-605.38770	-73.19949	157.81917	-648.62720	-68.33432	161.50670	-679.22491	-56.49827	760.56409										-657.25244	-67.53322	875.57263	-702.84412	-33.10759	618.24023	
248	4.940	-718.81061	287.77896	1542.04639	-687.07562	75.59317	573.89111	-606.62341	111.08351	1360.81946	-685.10913	288.41071	874.42908	-581.25403	-1.56030	806.90955	-691.53906	149.06482	577.24994	-694.14020	274.33893	745.60712	-725.43872	255.70277	644.23108				-660.85297	16.31249	520.28900	-729.12726	251.82303	577.24213	-675.95441	210.57239	535.33215	-588.12897	228.23167	794.57959	-712.63690	154.68422	218.38377	-768.72052	229.27519	205.30347	-882.49231	296.34213	144.90112	-674.78094	52.51014	160.40536	-675.89551	173.80367	159.23474	-592.75427	218.36250	174.02644	-660.05200	298.18469	157.05453	-623.71790	306.62170	158.69186	-556.89996	256.04303	163.82722	-528.12799	304.54727	146.78020	-730.87061	107.90234	1845.85767	-709.09521	-67.77279	1534.84436	-769.26959	261.47055	502.97922	-517.51349	-72.77390	143.61009	-547.87274	-24.50208	162.74548	-718.74261	69.34360	216.91930				-793.65216	37.18981	174.62244	-796.58496	180.09866	184.20702	-754.43488	-43.02360	490.86237	-599.81097	27.29932	168.36961	-759.20251	-21.02604	207.78111	-875.85522	-78.73365	141.22168	-797.93579	98.69662	1054.31165	-709.88116	-30.81791	570.43127	-605.51074	-73.37537	158.19492	-648.62201	-68.42218	161.47511	-679.22491	-56.49827	760.56409										-657.11237	-67.77275	875.30829	-702.94958	-33.27630	618.25970	
